<?xml version="1.0" encoding="UTF-8" standalone="no"?>
<!DOCTYPE svg PUBLIC "-//W3C//DTD SVG 1.1//EN" "http://www.w3.org/Graphics/SVG/1.1/DTD/svg11.dtd">
<svg version="1.1" xmlns="http://www.w3.org/2000/svg" xmlns:xlink="http://www.w3.org/1999/xlink" preserveAspectRatio="xMidYMid meet" viewBox="0 0 100 300" width="100" height="300"><defs><path d="M0 0L100 0L100 16.95L0 16.95L0 0Z" id="aITjVnIU"></path><path d="M0 23.14L100 23.14L100 40.1L0 40.1L0 23.14Z" id="c2RMOIzKA1"></path><path d="M0 47.57L100 47.57L100 64.53L0 64.53L0 47.57Z" id="c2xjSiWpMX"></path><path d="M0 72L100 72L100 88.96L0 88.96L0 72Z" id="cWwLJYkK"></path><path d="M0 97.29L100 97.29L100 114.24L0 114.24L0 97.29Z" id="b2ce4zHvoX"></path><path d="M0 121.29L100 121.29L100 138.24L0 138.24L0 121.29Z" id="aQMDLTBX0"></path><path d="M0 144.43L100 144.43L100 161.39L0 161.39L0 144.43Z" id="actLl2J5f"></path><path d="M0 168.43L100 168.43L100 185.39L0 185.39L0 168.43Z" id="fqVdqQDhI"></path><path d="M0 192.44L100 192.44L100 209.39L0 209.39L0 192.44Z" id="aahI2vQf2"></path><path d="M0 216.44L100 216.44L100 233.39L0 233.39L0 216.44Z" id="ba18164D7"></path><path d="M0 242.15L100 242.15L100 259.11L0 259.11L0 242.15Z" id="a4dfd0yOW"></path><path d="M0 266.15L100 266.15L100 283.11L0 283.11L0 266.15Z" id="c13aEIAMoG"></path><path d="M0 289.3L100 289.3L100 301.1L0 301.1L0 289.3Z" id="c3h4LMoaX"></path><path d="M0 0L15.76 0L15.76 301.1L0 301.1L0 0Z" id="a1pNOJfEI8"></path><path d="M84.24 0L100 0L100 301.1L84.24 301.1L84.24 0Z" id="c2KEUCZcsn"></path></defs><g><g><g><use xlink:href="#aITjVnIU" opacity="1" fill="#bcbbb9" fill-opacity="1"></use></g><g><use xlink:href="#c2RMOIzKA1" opacity="1" fill="#bcbbb9" fill-opacity="1"></use></g><g><use xlink:href="#c2xjSiWpMX" opacity="1" fill="#bcbbb9" fill-opacity="1"></use></g><g><use xlink:href="#cWwLJYkK" opacity="1" fill="#bcbbb9" fill-opacity="1"></use></g><g><use xlink:href="#b2ce4zHvoX" opacity="1" fill="#bcbbb9" fill-opacity="1"></use></g><g><use xlink:href="#aQMDLTBX0" opacity="1" fill="#bcbbb9" fill-opacity="1"></use></g><g><use xlink:href="#actLl2J5f" opacity="1" fill="#bcbbb9" fill-opacity="1"></use></g><g><use xlink:href="#fqVdqQDhI" opacity="1" fill="#bcbbb9" fill-opacity="1"></use></g><g><use xlink:href="#aahI2vQf2" opacity="1" fill="#bcbbb9" fill-opacity="1"></use></g><g><use xlink:href="#ba18164D7" opacity="1" fill="#bcbbb9" fill-opacity="1"></use></g><g><use xlink:href="#a4dfd0yOW" opacity="1" fill="#bcbbb9" fill-opacity="1"></use></g><g><use xlink:href="#c13aEIAMoG" opacity="1" fill="#bcbbb9" fill-opacity="1"></use></g><g><use xlink:href="#c3h4LMoaX" opacity="1" fill="#bcbbb9" fill-opacity="1"></use></g><g><use xlink:href="#a1pNOJfEI8" opacity="1" fill="#bcbbb9" fill-opacity="1"></use></g><g><use xlink:href="#c2KEUCZcsn" opacity="1" fill="#bcbbb9" fill-opacity="1"></use></g></g></g></svg>