<?xml version="1.0" encoding="utf-8"?>
<!-- Generator: Adobe Illustrator 24.0.3, SVG Export Plug-In . SVG Version: 6.00 Build 0)  -->
<svg version="1.1" id="Layer_1" xmlns="http://www.w3.org/2000/svg" xmlns:xlink="http://www.w3.org/1999/xlink" x="0px" y="0px"
	 viewBox="0 0 473.93 473.93" style="enable-background:new 0 0 473.93 473.93;" xml:space="preserve">
<style type="text/css">
	.st0{fill:#A0D2DC;}
	.st1{fill:#F5F3E2;}
</style>
<circle class="st0" cx="236.97" cy="236.97" r="236.97"/>
<path class="st1" d="M382.88,416.82c-25.52,3.17-44.32-12.12-59.78-36.6c-0.47-0.73-1.25-1.11-1.47-2.06
	c-6.58-29.37-26.08-27.62-42.11-34.33c-12.17-5.1-24.52-9.78-36.15-16.44c-21.75-12.42-19.3-8.3-26.71,24.68
	c-2.84,12.63-5.54,25.31-8.47,38.78c-19.41,4.79-36.33,2.69-45.63-21.22c-4.21-10.81-6.17-24.69-8.59-37.69
	c-1.28-6.83,0.7-11.97,6.37-15.47c9.97-6.16,19.88-13.61,29.76-20.94c9.79-7.27,10.92-13.02,5.75-24.14
	c-12.61-27.09-25.04-54.45-37.44-81.84c-1.67-3.71-2.88-8.08-4.13-12.34c-5.27-17.97-12.95-30.09-25.62-36.27
	c-21.07-10.26-32.68-37.37-38.93-72.56c1.43-1.14,2.26-2.26,2.76-2.13c24.12,6.34,48.55,11.62,72.23,19.5
	c25.38,8.46,43.54,31.38,54.28,68.77c4.62,16.06,11.34,29.87,17.82,43.64c8.97,19.11,16.18,20.07,33.43,6.81
	c18.02-13.87,27.03-14.29,41.64-1.71c-8.7,9.51-17.42,18.36-25.76,28.33c-7.39,8.83-7.49,13.08-0.81,16.56
	c14.26,7.38,28.91,13.66,42.92,21.74c10.19,5.88,16.99,18.29,21.75,33.94c10.11,33.19,20.34,66.25,30.58,99.28
	c0.98,3.19,2.44,5.77,3.68,8.65C383.77,413.44,383.33,415.11,382.88,416.82z"/>
</svg>
