<?xml version="1.0" encoding="UTF-8" standalone="no"?>
<!DOCTYPE svg PUBLIC "-//W3C//DTD SVG 1.1//EN" "http://www.w3.org/Graphics/SVG/1.1/DTD/svg11.dtd">
<svg version="1.1" xmlns="http://www.w3.org/2000/svg" xmlns:xlink="http://www.w3.org/1999/xlink" preserveAspectRatio="xMidYMid meet" viewBox="0 0 851 315" width="851" height="315"><defs><path d="M0 1.46L851 1.46L851 315L0 315L0 1.46Z" id="bqb9iRZUJ"></path><path d="M0 191L198.52 221.66L581.17 229.98L851 235.94L851 315L0 315L0 191Z" id="g1jbUQaXeW"></path><path d="M518.7 230.92L613.18 233.96L851.66 245.66L851.46 206.44L552.65 206.35L151.95 204.71C163.99 210.89 171.52 214.75 174.53 216.29C182.65 220.45 191.6 222.73 200.72 222.96C243.12 224.02 349.11 226.67 518.7 230.92Z" id="c2YD13143w"></path><path d="M836.57 275.91C800.87 287.59 757.08 261.67 679.4 260.57C595.26 259.39 469.52 287.67 334.57 260.57C312 256.04 288.73 252.64 264.77 250.37C185.87 237.01 141.62 228.14 132.02 223.75C45.6 184.23 151.66 186.47 249.14 214.6C303.29 230.22 307.69 220.14 404.01 225.18C459.87 228.11 609.36 220.86 679.4 220.23C699.44 220.05 737.31 222.16 758.51 221.68C790.97 220.96 822.03 220.48 851.66 220.23L851 278.55" id="c3L0eJECfP"></path><path d="M501.81 45.97C501.81 50.08 515.54 53.42 532.46 53.42C549.38 53.42 563.11 50.08 563.11 45.97C563.11 41.85 549.38 38.51 532.46 38.51C515.54 38.51 501.81 41.85 501.81 45.97Z" id="a5D86jSjZ"></path><path d="M586.29 40.26C586.29 44.68 606.39 48.27 631.15 48.27C655.91 48.27 676.01 44.68 676.01 40.26C676.01 35.84 655.91 32.25 631.15 32.25C606.39 32.25 586.29 35.84 586.29 40.26Z" id="b1wFkSCzt8"></path><path d="M606.41 43.93C606.41 48.04 596.02 51.38 583.23 51.38C570.44 51.38 560.05 48.04 560.05 43.93C560.05 39.81 570.44 36.47 583.23 36.47C596.02 36.47 606.41 39.81 606.41 43.93Z" id="b2fHHt06e"></path><path d="M654.59 34.89C654.59 39.9 644.2 43.96 631.41 43.96C618.62 43.96 608.23 39.9 608.23 34.89C608.23 29.89 618.62 25.83 631.41 25.83C644.2 25.83 654.59 29.89 654.59 34.89Z" id="a2xEZOhpVT"></path><path d="M524.98 47.16C524.98 51.28 538.72 54.62 555.64 54.62C572.56 54.62 586.29 51.28 586.29 47.16C586.29 43.05 572.56 39.71 555.64 39.71C538.72 39.71 524.98 43.05 524.98 47.16Z" id="a1hrMJQiQG"></path><path d="M586.29 38.51C586.29 42.63 596.68 45.97 609.47 45.97C622.26 45.97 632.65 42.63 632.65 38.51C632.65 34.4 622.26 31.06 609.47 31.06C596.68 31.06 586.29 34.4 586.29 38.51Z" id="aaz3b0p9H"></path><path d="M562.95 38.72C558.74 34.81 565.18 30.63 577.33 29.4C589.47 28.16 602.74 30.32 606.95 34.23C611.15 38.14 604.71 42.31 592.57 43.55C580.42 44.79 567.15 42.62 562.95 38.72Z" id="bhQvvvmwR"></path><path d="M615.9 45.97C615.9 50.08 636 53.42 660.76 53.42C685.52 53.42 705.62 50.08 705.62 45.97C705.62 41.85 685.52 38.51 660.76 38.51C636 38.51 615.9 41.85 615.9 45.97Z" id="a2M3DMjvc1"></path><path d="M583.23 47.16C583.23 51.28 593.61 54.62 606.41 54.62C619.2 54.62 629.58 51.28 629.58 47.16C629.58 43.05 619.2 39.71 606.41 39.71C593.61 39.71 583.23 43.05 583.23 47.16Z" id="gWw2yOio4"></path><path d="M596.29 42.68C590.38 46.37 573.26 47.5 558.09 45.2C542.91 42.9 535.39 38.03 541.3 34.34C547.21 30.65 564.33 29.52 579.51 31.82C594.68 34.13 602.2 38.99 596.29 42.68Z" id="a6ifJutkXq"></path><path d="M851.66 269.36C826.53 273.19 801.95 258.87 759.67 259.89C702.47 261.27 544.6 269.74 456.01 265.97C342.14 261.13 231.51 248.75 124.12 228.83C102.74 226.9 88.26 224.08 80.67 220.37C53.78 207.22 95.49 206.83 205.79 219.2C276.49 227.13 277.52 239.69 402.05 241.23C436.36 241.65 469.37 244.15 509.53 243.34C553.91 242.44 596.15 233.38 643.57 232.72C673.33 232.3 721.02 233.39 752.75 232.74C790.76 231.96 823.73 230.29 851.66 227.73L851.66 247.82" id="c9wBvSTz6"></path><path d="M851 278.26C799.09 285.85 759.72 277.95 635.67 270.95C577.02 267.64 477.57 278.01 397.45 276.83C333.21 275.89 272.79 270.46 216.18 260.55C192.29 254.23 171.64 248.87 154.22 244.5C134.71 239.6 118.98 235.56 107.06 232.35C56.23 218.63 74.59 219.7 163.78 231.2C228.18 239.5 300.52 251.82 415.05 254.51C481.49 256.06 573.48 249.85 656.78 249.51C690.56 249.38 735.24 257.62 771.79 257.17C800.51 256.82 826.91 254.47 851 250.12L851 265.69" id="b9ZUbnbRq"></path><path d="M850.84 290.24C798.3 301.89 785.55 293.55 660.01 282.8C630.62 280.29 498.88 294.63 440.9 293.48C381.74 292.3 348.06 284.79 307.11 283.88C242.09 282.44 182.52 268 128.41 240.58C-25.02 201.58 -36.55 194.82 93.8 220.31C158.97 233.06 286.81 267.17 402.73 271.29C469.96 273.68 569.97 264.41 654.28 263.89C701.28 263.6 745.67 275.7 797.98 274.51C813.61 274.15 831.5 273.08 851.66 271.29L851 288.31" id="a1hwCHVMgm"></path><path d="M76.54 186.86L162.58 192.46L232.08 211.91L236.78 213.18L236.63 213.19L237.95 213.55L118.98 217.27L0.01 215.87L0 161.45L31.83 172.51L76.54 186.86Z" id="dzcXBT84r"></path><linearGradient id="gradientb2G5uPnKD" gradientUnits="userSpaceOnUse" x1="116.53" y1="158.75" x2="119.09" y2="217.26"><stop style="stop-color: #51f107;stop-opacity: 0.91" offset="0%"></stop><stop style="stop-color: #010000;stop-opacity: 1" offset="100%"></stop></linearGradient><path d="M415.14 103.9C415.14 106.24 426.82 108.13 441.21 108.13C455.6 108.13 467.28 106.24 467.28 103.9C467.28 101.56 455.6 99.66 441.21 99.66C426.82 99.66 415.14 101.56 415.14 103.9Z" id="ejfVdgUPH"></path><path d="M486.99 100.66C486.99 103.17 504.09 105.21 525.14 105.21C546.2 105.21 563.29 103.17 563.29 100.66C563.29 98.15 546.2 96.11 525.14 96.11C504.09 96.11 486.99 98.15 486.99 100.66Z" id="a24uuyVFcU"></path><path d="M504.1 102.74C504.1 105.08 495.26 106.97 484.39 106.97C473.51 106.97 464.67 105.08 464.67 102.74C464.67 100.4 473.51 98.51 484.39 98.51C495.26 98.51 504.1 100.4 504.1 102.74Z" id="b2Z3LaKj4L"></path><path d="M545.07 97.61C545.07 100.45 536.24 102.76 525.36 102.76C514.48 102.76 505.65 100.45 505.65 97.61C505.65 94.76 514.48 92.46 525.36 92.46C536.24 92.46 545.07 94.76 545.07 97.61Z" id="d1xmDjOoRp"></path><path d="M434.85 104.58C434.85 106.92 446.54 108.81 460.92 108.81C475.31 108.81 486.99 106.92 486.99 104.58C486.99 102.24 475.31 100.34 460.92 100.34C446.54 100.34 434.85 102.24 434.85 104.58Z" id="d4Aorbojk"></path><path d="M486.99 99.66C486.99 102 495.82 103.9 506.7 103.9C517.58 103.9 526.41 102 526.41 99.66C526.41 97.33 517.58 95.43 506.7 95.43C495.82 95.43 486.99 97.33 486.99 99.66Z" id="a17r2cWH4H"></path><path d="M467.14 99.78C463.56 97.56 469.04 95.19 479.37 94.49C489.69 93.78 500.98 95.01 504.56 97.23C508.13 99.45 502.65 101.82 492.33 102.53C482 103.23 470.71 102 467.14 99.78Z" id="a2vXLQ9dur"></path><path d="M512.17 103.9C512.17 106.24 529.26 108.13 550.32 108.13C571.37 108.13 588.47 106.24 588.47 103.9C588.47 101.56 571.37 99.66 550.32 99.66C529.26 99.66 512.17 101.56 512.17 103.9Z" id="a2WHAEtrxB"></path><path d="M484.39 104.58C484.39 106.92 493.22 108.81 504.1 108.81C514.97 108.81 523.81 106.92 523.81 104.58C523.81 102.24 514.97 100.34 504.1 100.34C493.22 100.34 484.39 102.24 484.39 104.58Z" id="c1gwl6ot2U"></path><path d="M495.5 102.03C490.47 104.13 475.91 104.77 463 103.46C450.1 102.15 443.7 99.39 448.73 97.29C453.76 95.2 468.32 94.56 481.22 95.86C494.13 97.17 500.52 99.94 495.5 102.03Z" id="c1rK2ioy4N"></path><path d="M258.49 63.62C258.49 70.13 242.9 75.42 223.71 75.42C204.52 75.42 188.93 70.13 188.93 63.62C188.93 57.1 204.52 51.82 223.71 51.82C242.9 51.82 258.49 57.1 258.49 63.62Z" id="b2ZEu5qDBu"></path><path d="M284.78 54.58C284.78 61.58 307.59 67.26 335.67 67.26C363.76 67.26 386.57 61.58 386.57 54.58C386.57 47.59 363.76 41.91 335.67 41.91C307.59 41.91 284.78 47.59 284.78 54.58Z" id="f1qQ8diWtf"></path><path d="M307.6 60.39C307.6 66.9 295.82 72.19 281.3 72.19C266.79 72.19 255.01 66.9 255.01 60.39C255.01 53.88 266.79 48.59 281.3 48.59C295.82 48.59 307.6 53.88 307.6 60.39Z" id="d4BtcEWfo"></path><path d="M362.26 46.09C362.26 54.01 350.48 60.44 335.97 60.44C321.46 60.44 309.67 54.01 309.67 46.09C309.67 38.16 321.46 31.73 335.97 31.73C350.48 31.73 362.26 38.16 362.26 46.09Z" id="b1E4BGnIxA"></path><path d="M215.23 65.51C215.23 72.03 230.81 77.32 250.01 77.32C269.2 77.32 284.78 72.03 284.78 65.51C284.78 59 269.2 53.71 250.01 53.71C230.81 53.71 215.23 59 215.23 65.51Z" id="akSdZj0Bs"></path><path d="M337.37 51.82C337.37 58.33 325.59 63.62 311.08 63.62C296.56 63.62 284.78 58.33 284.78 51.82C284.78 45.3 296.56 40.01 311.08 40.01C325.59 40.01 337.37 45.3 337.37 51.82Z" id="bjan6297L"></path><path d="M258.29 52.14C253.52 45.96 260.84 39.34 274.61 37.38C288.39 35.42 303.44 38.85 308.21 45.04C312.99 51.22 305.67 57.83 291.9 59.79C278.12 61.75 263.07 58.32 258.29 52.14Z" id="a2mIaDFftw"></path><path d="M318.37 63.62C318.37 70.13 341.17 75.42 369.26 75.42C397.35 75.42 420.16 70.13 420.16 63.62C420.16 57.1 397.35 51.82 369.26 51.82C341.17 51.82 318.37 57.1 318.37 63.62Z" id="b4MSMKF57"></path><path d="M281.3 65.51C281.3 72.03 293.09 77.32 307.6 77.32C322.11 77.32 333.89 72.03 333.89 65.51C333.89 59 322.11 53.71 307.6 53.71C293.09 53.71 281.3 59 281.3 65.51Z" id="b7m8rBvi4"></path><path d="M296.13 58.42C289.42 64.26 270 66.05 252.78 62.4C235.57 58.76 227.03 51.05 233.74 45.21C240.45 39.37 259.87 37.58 277.08 41.23C294.3 44.87 302.83 52.58 296.13 58.42Z" id="b53aPYjsYW"></path><path d="M108.6 46.85L158.29 40.72L113.82 64.48L135.89 104.23L99.65 71.26L63.41 104.23L85.55 67.05L41.01 40.72L90.82 49.3L99.65 1.46L108.6 46.85Z" id="b4C7avjDIc"></path><path d="M115.91 57.29L159.21 82.38L108.6 74.38L101.85 119.58L89.93 74.38L44.27 76.68L83.47 51.23L66.04 12.95L101.61 42.91L137.07 16.48L115.91 57.29Z" id="a15HlmNLTO"></path><path d="M139.4 60.52C139.4 82.17 120.97 99.75 98.28 99.75C75.59 99.75 57.17 82.17 57.17 60.52C57.17 38.87 75.59 21.3 98.28 21.3C120.97 21.3 139.4 38.87 139.4 60.52Z" id="d55OAQ1OxB"></path><path d="M125.84 60.52C125.84 74.9 113.49 86.57 98.28 86.57C83.08 86.57 70.73 74.9 70.73 60.52C70.73 46.15 83.08 34.47 98.28 34.47C113.49 34.47 125.84 46.15 125.84 60.52Z" id="a1cV7Sgp0W"></path><path d="M111.2 60.07C111.2 67.26 105.12 73.1 97.62 73.1C90.13 73.1 84.05 67.26 84.05 60.07C84.05 52.87 90.13 47.03 97.62 47.03C105.12 47.03 111.2 52.87 111.2 60.07Z" id="h140DbdDU6"></path><path d="M691.61 92.94C691.61 98.3 676.97 102.66 658.94 102.66C640.91 102.66 626.27 98.3 626.27 92.94C626.27 87.58 640.91 83.23 658.94 83.23C676.97 83.23 691.61 87.58 691.61 92.94Z" id="a9qkkJLfwk"></path><path d="M716.31 85.51C716.31 91.27 737.74 95.94 764.13 95.94C790.51 95.94 811.94 91.27 811.94 85.51C811.94 79.75 790.51 75.07 764.13 75.07C737.74 75.07 716.31 79.75 716.31 85.51Z" id="d1clvOfewb"></path><path d="M737.75 90.29C737.75 95.65 726.68 100 713.05 100C699.41 100 688.35 95.65 688.35 90.29C688.35 84.92 699.41 80.57 713.05 80.57C726.68 80.57 737.75 84.92 737.75 90.29Z" id="a1IVLcakm8"></path><path d="M789.1 78.51C789.1 85.03 778.04 90.32 764.4 90.32C750.77 90.32 739.7 85.03 739.7 78.51C739.7 71.99 750.77 66.7 764.4 66.7C778.04 66.7 789.1 71.99 789.1 78.51Z" id="aq6tWIWCp"></path><path d="M650.97 94.5C650.97 99.86 665.61 104.22 683.64 104.22C701.68 104.22 716.31 99.86 716.31 94.5C716.31 89.14 701.68 84.79 683.64 84.79C665.61 84.79 650.97 89.14 650.97 94.5Z" id="bh15VkRnN"></path><path d="M765.72 83.23C765.72 88.59 754.65 92.94 741.02 92.94C727.38 92.94 716.31 88.59 716.31 83.23C716.31 77.87 727.38 73.51 741.02 73.51C754.65 73.51 765.72 77.87 765.72 83.23Z" id="ahQIhRtpR"></path><path d="M691.43 83.49C686.95 78.41 693.82 72.96 706.76 71.35C719.7 69.74 733.85 72.56 738.33 77.65C742.81 82.74 735.94 88.18 723 89.79C710.06 91.41 695.91 88.58 691.43 83.49Z" id="e4ZmUw1IrD"></path><path d="M747.87 92.94C747.87 98.3 769.29 102.66 795.68 102.66C822.07 102.66 843.49 98.3 843.49 92.94C843.49 87.58 822.07 83.23 795.68 83.23C769.29 83.23 747.87 87.58 747.87 92.94Z" id="dVg5noK9u"></path><path d="M713.05 94.5C713.05 99.86 724.12 104.22 737.75 104.22C751.38 104.22 762.45 99.86 762.45 94.5C762.45 89.14 751.38 84.79 737.75 84.79C724.12 84.79 713.05 89.14 713.05 94.5Z" id="dJGOpA2Bi"></path><path d="M726.97 88.66C720.67 93.47 702.43 94.94 686.25 91.94C670.08 88.94 662.06 82.6 668.36 77.79C674.66 72.98 692.91 71.52 709.08 74.52C725.26 77.51 733.27 83.85 726.97 88.66Z" id="bBwLZsVEH"></path></defs><g><g><g><use xlink:href="#bqb9iRZUJ" opacity="1" fill="#a0ecf0" fill-opacity="1"></use></g><g><use xlink:href="#g1jbUQaXeW" opacity="1" fill="#d8d6bc" fill-opacity="1"></use></g><g><use xlink:href="#c2YD13143w" opacity="1" fill="#1f8fa5" fill-opacity="1"></use></g><g><use xlink:href="#c3L0eJECfP" opacity="1" fill="#15b19a" fill-opacity="1"></use></g><g><g><use xlink:href="#a5D86jSjZ" opacity="1" fill="#fafaf6" fill-opacity="0.58"></use></g><g><use xlink:href="#b1wFkSCzt8" opacity="1" fill="#f7f7f0" fill-opacity="0.55"></use></g><g><use xlink:href="#b2fHHt06e" opacity="1" fill="#fafaf6" fill-opacity="0.76"></use></g><g><use xlink:href="#a2xEZOhpVT" opacity="1" fill="#fcfbf5" fill-opacity="0.62"></use></g><g><use xlink:href="#a1hrMJQiQG" opacity="1" fill="#f3f2e8" fill-opacity="0.86"></use></g><g><use xlink:href="#aaz3b0p9H" opacity="1" fill="#f6f5ed" fill-opacity="0.91"></use></g><g><use xlink:href="#bhQvvvmwR" opacity="1" fill="#f7f7f2" fill-opacity="0.87"></use></g><g><use xlink:href="#a2M3DMjvc1" opacity="1" fill="#f3f1e2" fill-opacity="0.72"></use></g><g><use xlink:href="#gWw2yOio4" opacity="1" fill="#f4f3e9" fill-opacity="0.79"></use></g><g><use xlink:href="#a6ifJutkXq" opacity="1" fill="#eeeddf" fill-opacity="0.58"></use></g></g><g><use xlink:href="#c9wBvSTz6" opacity="1" fill="#3dbbd4" fill-opacity="1"></use></g><g><use xlink:href="#b9ZUbnbRq" opacity="1" fill="#82f3e2" fill-opacity="0.91"></use></g><g><use xlink:href="#a1hwCHVMgm" opacity="1" fill="#f7f9f9" fill-opacity="0.79"></use></g><g><use xlink:href="#dzcXBT84r" opacity="1" fill="url(#gradientb2G5uPnKD)"></use><g><use xlink:href="#dzcXBT84r" opacity="1" fill-opacity="0" stroke="#26773a" stroke-width="2" stroke-opacity="1"></use></g></g><g><g><use xlink:href="#ejfVdgUPH" opacity="1" fill="#fafaf6" fill-opacity="0.58"></use></g><g><use xlink:href="#a24uuyVFcU" opacity="1" fill="#f7f7f0" fill-opacity="0.55"></use></g><g><use xlink:href="#b2Z3LaKj4L" opacity="1" fill="#fafaf6" fill-opacity="0.76"></use></g><g><use xlink:href="#d1xmDjOoRp" opacity="1" fill="#fcfbf5" fill-opacity="0.62"></use></g><g><use xlink:href="#d4Aorbojk" opacity="1" fill="#f3f2e8" fill-opacity="0.86"></use></g><g><use xlink:href="#a17r2cWH4H" opacity="1" fill="#f6f5ed" fill-opacity="0.91"></use></g><g><use xlink:href="#a2vXLQ9dur" opacity="1" fill="#f7f7f2" fill-opacity="0.87"></use></g><g><use xlink:href="#a2WHAEtrxB" opacity="1" fill="#f3f1e2" fill-opacity="0.72"></use></g><g><use xlink:href="#c1gwl6ot2U" opacity="1" fill="#f4f3e9" fill-opacity="0.79"></use></g><g><use xlink:href="#c1rK2ioy4N" opacity="1" fill="#eeeddf" fill-opacity="0.58"></use></g></g><g><g><use xlink:href="#b2ZEu5qDBu" opacity="1" fill="#fafaf6" fill-opacity="0.58"></use></g><g><use xlink:href="#f1qQ8diWtf" opacity="1" fill="#f7f7f0" fill-opacity="0.55"></use></g><g><use xlink:href="#d4BtcEWfo" opacity="1" fill="#fafaf6" fill-opacity="0.76"></use></g><g><use xlink:href="#b1E4BGnIxA" opacity="1" fill="#fcfbf5" fill-opacity="0.62"></use></g><g><use xlink:href="#akSdZj0Bs" opacity="1" fill="#f3f2e8" fill-opacity="0.86"></use></g><g><use xlink:href="#bjan6297L" opacity="1" fill="#f6f5ed" fill-opacity="0.91"></use></g><g><use xlink:href="#a2mIaDFftw" opacity="1" fill="#f7f7f2" fill-opacity="0.71"></use></g><g><use xlink:href="#b4MSMKF57" opacity="1" fill="#f3f1e2" fill-opacity="0.72"></use></g><g><use xlink:href="#b7m8rBvi4" opacity="1" fill="#f4f3e9" fill-opacity="0.79"></use></g><g><use xlink:href="#b53aPYjsYW" opacity="1" fill="#eeeddf" fill-opacity="0.58"></use></g></g><g><g><use xlink:href="#b4C7avjDIc" opacity="1" fill="#e2e478" fill-opacity="0.28"></use></g><g><use xlink:href="#a15HlmNLTO" opacity="1" fill="#e8e9a7" fill-opacity="0.3"></use></g><g><g><g><use xlink:href="#d55OAQ1OxB" opacity="1" fill="#eddf64" fill-opacity="0.25"></use></g><g><use xlink:href="#a1cV7Sgp0W" opacity="1" fill="#f1eba6" fill-opacity="0.3"></use></g></g><g><use xlink:href="#h140DbdDU6" opacity="1" fill="#f0db04" fill-opacity="0.57"></use></g></g></g><g><g><use xlink:href="#a9qkkJLfwk" opacity="1" fill="#fafaf6" fill-opacity="0.58"></use></g><g><use xlink:href="#d1clvOfewb" opacity="1" fill="#f7f7f0" fill-opacity="0.55"></use></g><g><use xlink:href="#a1IVLcakm8" opacity="1" fill="#fafaf6" fill-opacity="0.76"></use></g><g><use xlink:href="#aq6tWIWCp" opacity="1" fill="#fcfbf5" fill-opacity="0.62"></use></g><g><use xlink:href="#bh15VkRnN" opacity="1" fill="#f3f2e8" fill-opacity="0.86"></use></g><g><use xlink:href="#ahQIhRtpR" opacity="1" fill="#f6f5ed" fill-opacity="0.91"></use></g><g><use xlink:href="#e4ZmUw1IrD" opacity="1" fill="#f7f7f2" fill-opacity="0.71"></use></g><g><use xlink:href="#dVg5noK9u" opacity="1" fill="#f3f1e2" fill-opacity="0.72"></use></g><g><use xlink:href="#dJGOpA2Bi" opacity="1" fill="#f4f3e9" fill-opacity="0.79"></use></g><g><use xlink:href="#bBwLZsVEH" opacity="1" fill="#eeeddf" fill-opacity="0.58"></use></g></g></g></g></svg>