<?xml version="1.0" encoding="UTF-8" standalone="no"?>
<!DOCTYPE svg PUBLIC "-//W3C//DTD SVG 1.1//EN" "http://www.w3.org/Graphics/SVG/1.1/DTD/svg11.dtd">
<svg version="1.1" xmlns="http://www.w3.org/2000/svg" xmlns:xlink="http://www.w3.org/1999/xlink" preserveAspectRatio="xMidYMid meet" viewBox="0 0 851 315" width="851" height="315"><defs><path d="M359.91 50.02C359.91 54.13 373.65 57.48 390.57 57.48C407.49 57.48 421.22 54.13 421.22 50.02C421.22 45.91 407.49 42.57 390.57 42.57C373.65 42.57 359.91 45.91 359.91 50.02Z" id="gksMjuZnq"></path><path d="M444.4 44.31C444.4 48.73 464.5 52.32 489.26 52.32C514.02 52.32 534.12 48.73 534.12 44.31C534.12 39.89 514.02 36.31 489.26 36.31C464.5 36.31 444.4 39.89 444.4 44.31Z" id="g18oU1zn1w"></path><path d="M464.51 47.98C464.51 52.1 454.13 55.44 441.34 55.44C428.54 55.44 418.16 52.1 418.16 47.98C418.16 43.87 428.54 40.53 441.34 40.53C454.13 40.53 464.51 43.87 464.51 47.98Z" id="an5IGGk54"></path><path d="M512.7 38.95C512.7 43.95 502.31 48.01 489.52 48.01C476.73 48.01 466.34 43.95 466.34 38.95C466.34 33.94 476.73 29.88 489.52 29.88C502.31 29.88 512.7 33.94 512.7 38.95Z" id="c1IzkPpjfY"></path><path d="M383.09 51.22C383.09 55.33 396.83 58.67 413.75 58.67C430.66 58.67 444.4 55.33 444.4 51.22C444.4 47.1 430.66 43.76 413.75 43.76C396.83 43.76 383.09 47.1 383.09 51.22Z" id="c1wIHS3uM6"></path><path d="M444.4 42.57C444.4 46.68 454.79 50.02 467.58 50.02C480.37 50.02 490.76 46.68 490.76 42.57C490.76 38.45 480.37 35.11 467.58 35.11C454.79 35.11 444.4 38.45 444.4 42.57Z" id="b27p1e5n4i"></path><path d="M421.05 42.77C416.85 38.86 423.29 34.69 435.44 33.45C447.58 32.21 460.85 34.38 465.06 38.28C469.26 42.19 462.82 46.37 450.67 47.6C438.53 48.84 425.26 46.68 421.05 42.77Z" id="b1lHOxSKed"></path><path d="M474.01 50.02C474.01 54.13 494.11 57.48 518.87 57.48C543.63 57.48 563.73 54.13 563.73 50.02C563.73 45.91 543.63 42.57 518.87 42.57C494.11 42.57 474.01 45.91 474.01 50.02Z" id="a1Kt2olODO"></path><path d="M441.34 51.22C441.34 55.33 451.72 58.67 464.51 58.67C477.31 58.67 487.69 55.33 487.69 51.22C487.69 47.1 477.31 43.76 464.51 43.76C451.72 43.76 441.34 47.1 441.34 51.22Z" id="b2akZPB4rB"></path><path d="M454.4 46.74C448.49 50.43 431.37 51.55 416.19 49.25C401.02 46.95 393.5 42.08 399.41 38.39C405.32 34.7 422.44 33.58 437.62 35.88C452.79 38.18 460.31 43.05 454.4 46.74Z" id="alGlAPC5p"></path><path d="M252.98 103.9C252.98 106.24 264.66 108.13 279.05 108.13C293.44 108.13 305.12 106.24 305.12 103.9C305.12 101.56 293.44 99.66 279.05 99.66C264.66 99.66 252.98 101.56 252.98 103.9Z" id="a38St6rqX2"></path><path d="M324.83 100.66C324.83 103.17 341.92 105.21 362.98 105.21C384.03 105.21 401.13 103.17 401.13 100.66C401.13 98.15 384.03 96.11 362.98 96.11C341.92 96.11 324.83 98.15 324.83 100.66Z" id="a6jiIHyrYx"></path><path d="M341.93 102.74C341.93 105.08 333.1 106.97 322.22 106.97C311.34 106.97 302.51 105.08 302.51 102.74C302.51 100.4 311.34 98.51 322.22 98.51C333.1 98.51 341.93 100.4 341.93 102.74Z" id="a37TkW8HF"></path><path d="M382.91 97.61C382.91 100.45 374.08 102.76 363.2 102.76C352.32 102.76 343.49 100.45 343.49 97.61C343.49 94.76 352.32 92.46 363.2 92.46C374.08 92.46 382.91 94.76 382.91 97.61Z" id="b20C5hxpd"></path><path d="M272.69 104.58C272.69 106.92 284.37 108.81 298.76 108.81C313.15 108.81 324.83 106.92 324.83 104.58C324.83 102.24 313.15 100.34 298.76 100.34C284.37 100.34 272.69 102.24 272.69 104.58Z" id="b2wdwvBbdW"></path><path d="M324.83 99.66C324.83 102 333.66 103.9 344.54 103.9C355.42 103.9 364.25 102 364.25 99.66C364.25 97.33 355.42 95.43 344.54 95.43C333.66 95.43 324.83 97.33 324.83 99.66Z" id="bvDVDTUvD"></path><path d="M304.97 99.78C301.4 97.56 306.88 95.19 317.21 94.49C327.53 93.78 338.82 95.01 342.4 97.23C345.97 99.45 340.49 101.82 330.16 102.53C319.84 103.23 308.55 102 304.97 99.78Z" id="ata2m7yrD"></path><path d="M350.01 103.9C350.01 106.24 367.1 108.13 388.16 108.13C409.21 108.13 426.31 106.24 426.31 103.9C426.31 101.56 409.21 99.66 388.16 99.66C367.1 99.66 350.01 101.56 350.01 103.9Z" id="baVDJwi63"></path><path d="M322.22 104.58C322.22 106.92 331.06 108.81 341.93 108.81C352.81 108.81 361.64 106.92 361.64 104.58C361.64 102.24 352.81 100.34 341.93 100.34C331.06 100.34 322.22 102.24 322.22 104.58Z" id="efdEniBGX"></path><path d="M333.33 102.03C328.31 104.13 313.75 104.77 300.84 103.46C287.94 102.15 281.54 99.39 286.57 97.29C291.6 95.2 306.15 94.56 319.06 95.86C331.96 97.17 338.36 99.94 333.33 102.03Z" id="dUv2vCrrH"></path><path d="M107.14 69.02C107.14 75.54 91.55 80.83 72.36 80.83C53.17 80.83 37.58 75.54 37.58 69.02C37.58 62.51 53.17 57.22 72.36 57.22C91.55 57.22 107.14 62.51 107.14 69.02Z" id="b10JU4b5ZS"></path><path d="M133.43 59.99C133.43 66.99 156.23 72.67 184.32 72.67C212.41 72.67 235.21 66.99 235.21 59.99C235.21 52.99 212.41 47.31 184.32 47.31C156.23 47.31 133.43 52.99 133.43 59.99Z" id="b6rphzwTY"></path><path d="M156.25 65.8C156.25 72.31 144.47 77.6 129.95 77.6C115.44 77.6 103.66 72.31 103.66 65.8C103.66 59.28 115.44 53.99 129.95 53.99C144.47 53.99 156.25 59.28 156.25 65.8Z" id="bkJRQgaeQ"></path><path d="M210.91 51.49C210.91 59.41 199.13 65.84 184.62 65.84C170.1 65.84 158.32 59.41 158.32 51.49C158.32 43.57 170.1 37.14 184.62 37.14C199.13 37.14 210.91 43.57 210.91 51.49Z" id="j7JZnWfDS"></path><path d="M63.88 70.92C63.88 77.43 79.46 82.72 98.65 82.72C117.85 82.72 133.43 77.43 133.43 70.92C133.43 64.4 117.85 59.12 98.65 59.12C79.46 59.12 63.88 64.4 63.88 70.92Z" id="f4cRtPdORN"></path><path d="M186.02 57.22C186.02 63.73 174.24 69.02 159.72 69.02C145.21 69.02 133.43 63.73 133.43 57.22C133.43 50.71 145.21 45.42 159.72 45.42C174.24 45.42 186.02 50.71 186.02 57.22Z" id="cMTNuUFyf"></path><path d="M106.94 57.54C102.17 51.36 109.48 44.75 123.26 42.79C137.04 40.83 152.09 44.26 156.86 50.44C161.63 56.63 154.32 63.24 140.55 65.2C126.77 67.16 111.71 63.73 106.94 57.54Z" id="b5wVsQFSCW"></path><path d="M167.02 69.02C167.02 75.54 189.82 80.83 217.91 80.83C246 80.83 268.8 75.54 268.8 69.02C268.8 62.51 246 57.22 217.91 57.22C189.82 57.22 167.02 62.51 167.02 69.02Z" id="bbYQp5nly"></path><path d="M129.95 70.92C129.95 77.43 141.74 82.72 156.25 82.72C170.76 82.72 182.54 77.43 182.54 70.92C182.54 64.4 170.76 59.12 156.25 59.12C141.74 59.12 129.95 64.4 129.95 70.92Z" id="a2p9GquBR8"></path><path d="M144.77 63.82C138.07 69.67 118.65 71.45 101.43 67.81C84.22 64.16 75.68 56.46 82.39 50.62C89.1 44.77 108.52 42.99 125.73 46.63C142.95 50.28 151.48 57.98 144.77 63.82Z" id="e6aXm6oew2"></path><path d="M609.18 98.35C609.18 103.71 594.54 108.06 576.51 108.06C558.48 108.06 543.84 103.71 543.84 98.35C543.84 92.99 558.48 88.63 576.51 88.63C594.54 88.63 609.18 92.99 609.18 98.35Z" id="fDprwJVfD"></path><path d="M633.88 90.91C633.88 96.67 655.31 101.35 681.69 101.35C708.08 101.35 729.5 96.67 729.5 90.91C729.5 85.15 708.08 80.48 681.69 80.48C655.31 80.48 633.88 85.15 633.88 90.91Z" id="ai4jhAbjc"></path><path d="M655.32 95.69C655.32 101.05 644.25 105.41 630.62 105.41C616.98 105.41 605.91 101.05 605.91 95.69C605.91 90.33 616.98 85.98 630.62 85.98C644.25 85.98 655.32 90.33 655.32 95.69Z" id="a1pDd655S"></path><path d="M706.67 83.92C706.67 90.44 695.6 95.73 681.97 95.73C668.34 95.73 657.27 90.44 657.27 83.92C657.27 77.4 668.34 72.1 681.97 72.1C695.6 72.1 706.67 77.4 706.67 83.92Z" id="c2bZTZvRWf"></path><path d="M568.54 99.91C568.54 105.27 583.18 109.62 601.21 109.62C619.24 109.62 633.88 105.27 633.88 99.91C633.88 94.55 619.24 90.19 601.21 90.19C583.18 90.19 568.54 94.55 568.54 99.91Z" id="g3iMV7gdPn"></path><path d="M683.29 88.63C683.29 93.99 672.22 98.35 658.58 98.35C644.95 98.35 633.88 93.99 633.88 88.63C633.88 83.27 644.95 78.92 658.58 78.92C672.22 78.92 683.29 83.27 683.29 88.63Z" id="a4k2FeSZH"></path><path d="M609 88.9C604.52 83.81 611.39 78.37 624.33 76.76C637.27 75.14 651.41 77.96 655.9 83.05C660.38 88.14 653.51 93.58 640.57 95.2C627.63 96.81 613.48 93.99 609 88.9Z" id="eXWd83kRQ"></path><path d="M665.44 98.35C665.44 103.71 686.86 108.06 713.25 108.06C739.64 108.06 761.06 103.71 761.06 98.35C761.06 92.99 739.64 88.63 713.25 88.63C686.86 88.63 665.44 92.99 665.44 98.35Z" id="bD1PS75s"></path><path d="M630.62 99.91C630.62 105.27 641.68 109.62 655.32 109.62C668.95 109.62 680.02 105.27 680.02 99.91C680.02 94.55 668.95 90.19 655.32 90.19C641.68 90.19 630.62 94.55 630.62 99.91Z" id="cl0Mw54XO"></path><path d="M644.54 94.07C638.24 98.88 619.99 100.35 603.82 97.35C587.65 94.35 579.63 88.01 585.93 83.2C592.23 78.39 610.48 76.92 626.65 79.92C642.82 82.92 650.84 89.26 644.54 94.07Z" id="m1EQXOcJoO"></path></defs><g><g><g><use xlink:href="#gksMjuZnq" opacity="1" fill="#fafaf6" fill-opacity="0.58"></use></g><g><use xlink:href="#g18oU1zn1w" opacity="1" fill="#f7f7f0" fill-opacity="0.55"></use></g><g><use xlink:href="#an5IGGk54" opacity="1" fill="#fafaf6" fill-opacity="0.76"></use></g><g><use xlink:href="#c1IzkPpjfY" opacity="1" fill="#fcfbf5" fill-opacity="0.62"></use></g><g><use xlink:href="#c1wIHS3uM6" opacity="1" fill="#f3f2e8" fill-opacity="0.86"></use></g><g><use xlink:href="#b27p1e5n4i" opacity="1" fill="#f6f5ed" fill-opacity="0.91"></use></g><g><use xlink:href="#b1lHOxSKed" opacity="1" fill="#f7f7f2" fill-opacity="0.87"></use></g><g><use xlink:href="#a1Kt2olODO" opacity="1" fill="#f3f1e2" fill-opacity="0.72"></use></g><g><use xlink:href="#b2akZPB4rB" opacity="1" fill="#f4f3e9" fill-opacity="0.79"></use></g><g><use xlink:href="#alGlAPC5p" opacity="1" fill="#eeeddf" fill-opacity="0.58"></use></g></g><g><g><use xlink:href="#a38St6rqX2" opacity="1" fill="#fafaf6" fill-opacity="0.58"></use></g><g><use xlink:href="#a6jiIHyrYx" opacity="1" fill="#f7f7f0" fill-opacity="0.55"></use></g><g><use xlink:href="#a37TkW8HF" opacity="1" fill="#fafaf6" fill-opacity="0.76"></use></g><g><use xlink:href="#b20C5hxpd" opacity="1" fill="#fcfbf5" fill-opacity="0.62"></use></g><g><use xlink:href="#b2wdwvBbdW" opacity="1" fill="#f3f2e8" fill-opacity="0.86"></use></g><g><use xlink:href="#bvDVDTUvD" opacity="1" fill="#f6f5ed" fill-opacity="0.91"></use></g><g><use xlink:href="#ata2m7yrD" opacity="1" fill="#f7f7f2" fill-opacity="0.87"></use></g><g><use xlink:href="#baVDJwi63" opacity="1" fill="#f3f1e2" fill-opacity="0.72"></use></g><g><use xlink:href="#efdEniBGX" opacity="1" fill="#f4f3e9" fill-opacity="0.79"></use></g><g><use xlink:href="#dUv2vCrrH" opacity="1" fill="#eeeddf" fill-opacity="0.58"></use></g></g><g><g><use xlink:href="#b10JU4b5ZS" opacity="1" fill="#fafaf6" fill-opacity="0.58"></use></g><g><use xlink:href="#b6rphzwTY" opacity="1" fill="#f7f7f0" fill-opacity="0.55"></use></g><g><use xlink:href="#bkJRQgaeQ" opacity="1" fill="#fafaf6" fill-opacity="0.76"></use></g><g><use xlink:href="#j7JZnWfDS" opacity="1" fill="#fcfbf5" fill-opacity="0.62"></use></g><g><use xlink:href="#f4cRtPdORN" opacity="1" fill="#f3f2e8" fill-opacity="0.86"></use></g><g><use xlink:href="#cMTNuUFyf" opacity="1" fill="#f6f5ed" fill-opacity="0.91"></use></g><g><use xlink:href="#b5wVsQFSCW" opacity="1" fill="#f7f7f2" fill-opacity="0.71"></use></g><g><use xlink:href="#bbYQp5nly" opacity="1" fill="#f3f1e2" fill-opacity="0.72"></use></g><g><use xlink:href="#a2p9GquBR8" opacity="1" fill="#f4f3e9" fill-opacity="0.79"></use></g><g><use xlink:href="#e6aXm6oew2" opacity="1" fill="#eeeddf" fill-opacity="0.58"></use></g></g><g><g><use xlink:href="#fDprwJVfD" opacity="1" fill="#fafaf6" fill-opacity="0.58"></use></g><g><use xlink:href="#ai4jhAbjc" opacity="1" fill="#f7f7f0" fill-opacity="0.55"></use></g><g><use xlink:href="#a1pDd655S" opacity="1" fill="#fafaf6" fill-opacity="0.76"></use></g><g><use xlink:href="#c2bZTZvRWf" opacity="1" fill="#fcfbf5" fill-opacity="0.62"></use></g><g><use xlink:href="#g3iMV7gdPn" opacity="1" fill="#f3f2e8" fill-opacity="0.86"></use></g><g><use xlink:href="#a4k2FeSZH" opacity="1" fill="#f6f5ed" fill-opacity="0.91"></use></g><g><use xlink:href="#eXWd83kRQ" opacity="1" fill="#f7f7f2" fill-opacity="0.71"></use></g><g><use xlink:href="#bD1PS75s" opacity="1" fill="#f3f1e2" fill-opacity="0.72"></use></g><g><use xlink:href="#cl0Mw54XO" opacity="1" fill="#f4f3e9" fill-opacity="0.79"></use></g><g><use xlink:href="#m1EQXOcJoO" opacity="1" fill="#eeeddf" fill-opacity="0.58"></use></g></g></g></svg>