<?xml version="1.0" encoding="UTF-8" standalone="no"?>
<!DOCTYPE svg PUBLIC "-//W3C//DTD SVG 1.1//EN" "http://www.w3.org/Graphics/SVG/1.1/DTD/svg11.dtd">
<svg version="1.1" xmlns="http://www.w3.org/2000/svg" xmlns:xlink="http://www.w3.org/1999/xlink" preserveAspectRatio="xMidYMid meet" viewBox="0 0 851 315" width="851" height="315"><defs><path d="M0 191L198.52 221.66L581.17 229.98L851 235.94L851 315L0 315L0 191Z" id="a1n2sQry63"></path><path d="M518.7 230.92L613.18 233.96L851.66 245.66L851.46 206.44L552.65 206.35L151.95 204.71C163.99 210.89 171.52 214.75 174.53 216.29C182.65 220.45 191.6 222.73 200.72 222.96C243.12 224.02 349.11 226.67 518.7 230.92Z" id="b4sUVexHyo"></path><path d="M836.57 275.91C800.87 287.59 757.08 261.67 679.4 260.57C595.26 259.39 469.52 287.67 334.57 260.57C312 256.04 288.73 252.64 264.77 250.37C185.87 237.01 141.62 228.14 132.02 223.75C45.6 184.23 151.66 186.47 249.14 214.6C303.29 230.22 307.69 220.14 404.01 225.18C459.87 228.11 609.36 220.86 679.4 220.23C699.44 220.05 737.31 222.16 758.51 221.68C790.97 220.96 822.03 220.48 851.66 220.23L851 278.55" id="m87p8CXqC"></path><path d="M851.66 269.36C826.53 273.19 801.95 258.87 759.67 259.89C702.47 261.27 544.6 269.74 456.01 265.97C342.14 261.13 231.51 248.75 124.12 228.83C102.74 226.9 88.26 224.08 80.67 220.37C53.78 207.22 95.49 206.83 205.79 219.2C276.49 227.13 277.52 239.69 402.05 241.23C436.36 241.65 469.37 244.15 509.53 243.34C553.91 242.44 596.15 233.38 643.57 232.72C673.33 232.3 721.02 233.39 752.75 232.74C790.76 231.96 823.73 230.29 851.66 227.73L851.66 247.82" id="a6Jv4XJch"></path><path d="M851 278.26C799.09 285.85 759.72 277.95 635.67 270.95C577.02 267.64 477.57 278.01 397.45 276.83C333.21 275.89 272.79 270.46 216.18 260.55C192.29 254.23 171.64 248.87 154.22 244.5C134.71 239.6 118.98 235.56 107.06 232.35C56.23 218.63 74.59 219.7 163.78 231.2C228.18 239.5 300.52 251.82 415.05 254.51C481.49 256.06 573.48 249.85 656.78 249.51C690.56 249.38 735.24 257.62 771.79 257.17C800.51 256.82 826.91 254.47 851 250.12L851 265.69" id="e3qIkaSbIV"></path><path d="M850.84 290.24C798.3 301.89 785.55 293.55 660.01 282.8C630.62 280.29 498.88 294.63 440.9 293.48C381.74 292.3 348.06 284.79 307.11 283.88C242.09 282.44 182.52 268 128.41 240.58C-25.02 201.58 -36.55 194.82 93.8 220.31C158.97 233.06 286.81 267.17 402.73 271.29C469.96 273.68 569.97 264.41 654.28 263.89C701.28 263.6 745.67 275.7 797.98 274.51C813.61 274.15 831.5 273.08 851.66 271.29L851 288.31" id="aaTlwNw9Q"></path><path d="M76.54 186.86L162.58 192.46L232.08 211.91L236.78 213.18L236.63 213.19L237.95 213.55L118.98 217.27L0.01 215.87L0 161.45L31.83 172.51L76.54 186.86Z" id="b5ddfgY0Yv"></path><linearGradient id="gradientf4QTdKHR4h" gradientUnits="userSpaceOnUse" x1="116.53" y1="158.75" x2="119.09" y2="217.26"><stop style="stop-color: #51f107;stop-opacity: 0.91" offset="0%"></stop><stop style="stop-color: #010000;stop-opacity: 1" offset="100%"></stop></linearGradient><path d="M208.29 49.97L257.98 43.83L213.51 67.6L235.58 107.35L199.34 74.38L163.1 107.35L185.24 70.17L140.71 43.83L190.51 52.42L199.34 4.58L208.29 49.97Z" id="a4BNBBkmZ"></path><path d="M215.6 60.41L258.9 85.5L208.29 77.5L201.55 122.7L189.62 77.5L143.96 79.79L183.16 54.35L165.73 16.07L201.3 46.02L236.76 19.59L215.6 60.41Z" id="emDibj8Xj"></path><path d="M239.09 63.64C239.09 85.29 220.67 102.86 197.98 102.86C175.28 102.86 156.86 85.29 156.86 63.64C156.86 41.99 175.28 24.41 197.98 24.41C220.67 24.41 239.09 41.99 239.09 63.64Z" id="b3hzzlRVUk"></path><path d="M225.53 63.64C225.53 78.02 213.18 89.69 197.98 89.69C182.77 89.69 170.42 78.02 170.42 63.64C170.42 49.26 182.77 37.59 197.98 37.59C213.18 37.59 225.53 49.26 225.53 63.64Z" id="f1C4GHeRCu"></path><path d="M210.89 63.18C210.89 70.38 204.81 76.22 197.32 76.22C189.82 76.22 183.74 70.38 183.74 63.18C183.74 55.99 189.82 50.15 197.32 50.15C204.81 50.15 210.89 55.99 210.89 63.18Z" id="b1FHCi7zGi"></path></defs><g><g><use xlink:href="#a1n2sQry63" opacity="1" fill="#d8d6bc" fill-opacity="1"></use></g><g><use xlink:href="#b4sUVexHyo" opacity="1" fill="#1f8fa5" fill-opacity="1"></use></g><g><use xlink:href="#m87p8CXqC" opacity="1" fill="#15b19a" fill-opacity="1"></use></g><g><use xlink:href="#a6Jv4XJch" opacity="1" fill="#3dbbd4" fill-opacity="1"></use></g><g><use xlink:href="#e3qIkaSbIV" opacity="1" fill="#82f3e2" fill-opacity="0.91"></use></g><g><use xlink:href="#aaTlwNw9Q" opacity="1" fill="#f7f9f9" fill-opacity="0.79"></use></g><g><use xlink:href="#b5ddfgY0Yv" opacity="1" fill="url(#gradientf4QTdKHR4h)"></use><g><use xlink:href="#b5ddfgY0Yv" opacity="1" fill-opacity="0" stroke="#26773a" stroke-width="2" stroke-opacity="1"></use></g></g><g><g><use xlink:href="#a4BNBBkmZ" opacity="1" fill="#e2e478" fill-opacity="0.28"></use></g><g><use xlink:href="#emDibj8Xj" opacity="1" fill="#e8e9a7" fill-opacity="0.3"></use></g><g><g><g><use xlink:href="#b3hzzlRVUk" opacity="1" fill="#eddf64" fill-opacity="0.25"></use></g><g><use xlink:href="#f1C4GHeRCu" opacity="1" fill="#f1eba6" fill-opacity="0.3"></use></g></g><g><use xlink:href="#b1FHCi7zGi" opacity="1" fill="#f0db04" fill-opacity="0.57"></use></g></g></g></g></svg>