<?xml version="1.0" encoding="utf-8"?>
<!-- Generator: Adobe Illustrator 24.0.3, SVG Export Plug-In . SVG Version: 6.00 Build 0)  -->
<svg version="1.1" id="Layer_1" xmlns="http://www.w3.org/2000/svg" xmlns:xlink="http://www.w3.org/1999/xlink" x="0px" y="0px"
	 viewBox="0 0 473.93 473.93" style="enable-background:new 0 0 473.93 473.93;" xml:space="preserve">
<style type="text/css">
	.st0{fill:#A0D2DC;}
	.st1{fill:#F5F3E2;}
</style>
<circle class="st0" cx="236.97" cy="236.97" r="236.97"/>
<path class="st1" d="M275.97,17.2c18.94,17.4,19.46,41.62,10.81,69.26c-0.25,0.83-0.04,1.67-0.62,2.45
	c-18.12,24.03-4.16,37.76,1.1,54.32c3.99,12.58,8.42,25.02,10.88,38.19c4.62,24.62,6.17,20.08,36.1,4.38
	c11.46-6.01,22.88-12.16,35.04-18.65c16.22,11.69,25.57,25.95,13.37,48.51c-5.51,10.21-14.82,20.69-23.16,30.95
	c-4.38,5.4-9.58,7.22-15.91,5.16c-11.15-3.61-23.24-6.34-35.23-9.12c-11.88-2.75-16.99,0.11-22.12,11.25
	c-12.48,27.15-25.29,54.34-38.13,81.52c-1.75,3.67-4.29,7.43-6.73,11.14c-10.28,15.65-14.55,29.35-11.05,43.01
	c5.82,22.7-7.32,49.1-30.09,76.65c-1.79-0.35-3.19-0.26-3.41-0.72c-10.78-22.49-22.58-44.52-31.9-67.67
	c-9.98-24.82-4.27-53.5,17.27-85.89c9.25-13.92,15.42-27.98,21.72-41.84c8.76-19.21,4.82-25.33-16.45-29.89
	c-22.24-4.75-28.39-11.35-28.26-30.63c12.88,0.47,25.27,1.39,38.27,1.29c11.51-0.08,14.82-2.76,13.15-10.1
	c-3.61-15.65-8.31-30.88-11.22-46.79c-2.12-11.57,2.94-24.79,11.78-38.55c18.75-29.19,37.32-58.39,55.86-87.58
	c1.8-2.81,2.82-5.6,4.21-8.4C272.82,18.71,274.37,17.96,275.97,17.2z"/>
</svg>
