<?xml version="1.0" encoding="utf-8"?>
<!-- Generator: Adobe Illustrator 24.0.3, SVG Export Plug-In . SVG Version: 6.00 Build 0)  -->
<svg version="1.1" id="Layer_1" xmlns="http://www.w3.org/2000/svg" xmlns:xlink="http://www.w3.org/1999/xlink" x="0px" y="0px"
	 viewBox="0 0 473.93 473.93" style="enable-background:new 0 0 473.93 473.93;" xml:space="preserve">
<style type="text/css">
	.st0{fill:#A0D2DC;}
	.st1{fill:#F5F3E2;}
</style>
<circle class="st0" cx="236.97" cy="236.97" r="236.97"/>
<path class="st1" d="M245.79,469.47c-22.16-13.06-27.73-36.64-25.04-65.47c0.07-0.87-0.31-1.64,0.09-2.53
	c12.7-27.29-3.82-37.79-12.43-52.89c-6.53-11.46-13.46-22.71-18.62-35.08c-9.66-23.11-10.23-18.35-36.22,3.26
	c-9.95,8.28-19.83,16.68-30.37,25.56c-18.3-8.04-30.43-20.03-23.21-44.65c3.26-11.13,10.17-23.33,16.18-35.11
	c3.15-6.19,7.86-9.06,14.48-8.37c11.66,1.2,24.06,1.34,36.36,1.56c12.19,0.21,16.6-3.66,19.28-15.62
	c6.53-29.16,13.37-58.42,20.25-87.69c0.94-3.96,2.65-8.16,4.25-12.3c6.79-17.45,8.09-31.74,1.82-44.37
	c-10.44-20.98-3.1-49.55,13.41-81.24c1.83-0.03,3.17-0.41,3.49,0c15.25,19.74,31.38,38.82,45.34,59.51
	c14.95,22.19,15.36,51.42,1.06,87.6c-6.14,15.54-9.23,30.59-12.5,45.45c-4.55,20.61,0.58,25.77,22.34,25.79
	c22.74,0,30.14,5.16,34.04,24.05c-12.69,2.23-25,3.92-37.69,6.74c-11.24,2.49-13.91,5.8-10.74,12.63
	c6.8,14.55,14.58,28.46,20.75,43.41c4.49,10.88,2.31,24.86-3.47,40.16c-12.23,32.47-24.29,64.9-36.33,97.32
	c-1.17,3.13-1.59,6.06-2.36,9.1C248.56,467.33,247.19,468.39,245.79,469.47z"/>
</svg>
